<svg width="100" height="100" viewBox="0 0 100 100" fill="none" xmlns="http://www.w3.org/2000/svg">
  <style>
    path { stroke: #4f6ef7; }
    @media (prefers-color-scheme: dark) {
      path { stroke: #6b8afd; }
    }
  </style>
  <g transform="translate(0,15) scale(5)">
    <path d="M 0.0 7.0 C0.56 6.13 1.11 5.26 1.67 4.5 C2.22 3.74 2.78 3.11 3.33 2.67 C3.89 2.23 4.44 2.0 5.0 2.0 C5.56 2.0 6.11 2.23 6.67 2.67 C7.22 3.11 7.78 3.74 8.33 4.5 C8.89 5.26 9.44 6.13 10.0 7.0 C10.56 7.87 11.11 8.74 11.67 9.5 C12.22 10.26 12.78 10.89 13.33 11.33 C13.89 11.77 14.44 12.0 15.0 12.0 C15.56 12.0 16.11 11.77 16.67 11.33 C17.22 10.89 17.78 10.26 18.33 9.5 C18.89 8.74 19.44 7.87 20.0 7.0"
      stroke-width="0.5" stroke-linecap="round" stroke-linejoin="round"/>
    <path d="M 0.0 2.0 C0.56 2.0 1.11 2.23 1.67 2.67 C2.22 3.11 2.78 3.74 3.33 4.5 C3.89 5.26 4.44 6.13 5.0 7.0 C5.56 7.87 6.11 8.74 6.67 9.5 C7.22 10.26 7.78 10.89 8.33 11.33 C8.89 11.77 9.44 12.0 10.0 12.0 C10.56 12.0 11.11 11.77 11.67 11.33 C12.22 10.89 12.78 10.26 13.33 9.5 C13.89 8.74 14.44 7.87 15.0 7.0 C15.56 6.13 16.11 5.26 16.67 4.5 C17.22 3.74 17.78 3.11 18.33 2.67 C18.89 2.23 19.44 2.0 20.0 2.0"
      stroke-width="0.5" stroke-linecap="round" stroke-linejoin="round"/>
  </g>
</svg>
